<svg xmlns="http://www.w3.org/2000/svg" xmlns:xlink="http://www.w3.org/1999/xlink" width="106" height="106" viewBox="0 0 106 106">
  <defs>
    <filter id="Trazado_982547" x="0" y="0" width="106" height="106" filterUnits="userSpaceOnUse">
      <feOffset dy="3" input="SourceAlpha"/>
      <feGaussianBlur stdDeviation="3" result="blur"/>
      <feFlood flood-opacity="0.161"/>
      <feComposite operator="in" in2="blur"/>
      <feComposite in="SourceGraphic"/>
    </filter>
  </defs>
  <g id="Grupo_1230754" data-name="Grupo 1230754" transform="translate(-171 -744)">
    <g id="Grupo_1174813" data-name="Grupo 1174813" transform="translate(0 -638)">
      <g id="Grupo_1173169" data-name="Grupo 1173169" transform="translate(0 -2329)">
        <g id="Grupo_1172017" data-name="Grupo 1172017" transform="translate(0 2654)">
          <g id="Grupo_1167337" data-name="Grupo 1167337" transform="translate(180 1063)">
            <g id="Grupo_1166720" data-name="Grupo 1166720" transform="translate(0)">
              <g id="Grupo_1164305" data-name="Grupo 1164305">
                <g id="Grupo_1163948" data-name="Grupo 1163948">
                  <g id="Grupo_1158168" data-name="Grupo 1158168">
                    <g id="Grupo_1152576" data-name="Grupo 1152576">
                      <g id="Grupo_1148633" data-name="Grupo 1148633">
                        <g id="Grupo_1148525" data-name="Grupo 1148525">
                          <g transform="matrix(1, 0, 0, 1, -9, -6)" filter="url(#Trazado_982547)">
                            <g id="Trazado_982547-2" data-name="Trazado 982547" transform="translate(9 6)" fill="#f6ecfe">
                              <path d="M 44 86.5 C 38.26187515258789 86.5 32.69618606567383 85.37651062011719 27.45755004882812 83.16075897216797 C 22.3968505859375 81.020263671875 17.85157585144043 77.95565032958984 13.94796276092529 74.05204010009766 C 10.04434967041016 70.1484375 6.979737281799316 65.6031494140625 4.839250087738037 60.54246139526367 C 2.62348747253418 55.30381393432617 1.5 49.73812484741211 1.5 44 C 1.5 38.26187515258789 2.62348747253418 32.69618606567383 4.839250087738037 27.45755004882812 C 6.979737281799316 22.3968505859375 10.04434967041016 17.85157585144043 13.94796276092529 13.94796276092529 C 17.85157585144043 10.04434967041016 22.3968505859375 6.979737281799316 27.45755004882812 4.839250087738037 C 32.69618606567383 2.62348747253418 38.26187515258789 1.5 44 1.5 C 49.73812484741211 1.5 55.30381393432617 2.62348747253418 60.54246139526367 4.839250087738037 C 65.6031494140625 6.979737281799316 70.1484375 10.04434967041016 74.05204010009766 13.94796276092529 C 77.95565032958984 17.85157585144043 81.020263671875 22.3968505859375 83.16075897216797 27.45755004882812 C 85.37651062011719 32.69618606567383 86.5 38.26187515258789 86.5 44 C 86.5 49.73812484741211 85.37651062011719 55.30381393432617 83.16075897216797 60.54246139526367 C 81.020263671875 65.6031494140625 77.95565032958984 70.1484375 74.05204010009766 74.05204010009766 C 70.1484375 77.95565032958984 65.6031494140625 81.020263671875 60.54246139526367 83.16075897216797 C 55.30381393432617 85.37651062011719 49.73812484741211 86.5 44 86.5 Z" stroke="none"/>
                              <path d="M 44 3 C 38.46371459960938 3 33.09462738037109 4.083610534667969 28.0418701171875 6.220756530761719 C 23.15997314453125 8.285614013671875 18.77495574951172 11.24228668212891 15.00862884521484 15.00862884521484 C 11.24228668212891 18.77495574951172 8.285614013671875 23.15997314453125 6.220756530761719 28.0418701171875 C 4.083610534667969 33.09462738037109 3 38.46371459960938 3 44 C 3 49.53628540039062 4.083610534667969 54.9053840637207 6.220756530761719 59.9581298828125 C 8.285614013671875 64.84002685546875 11.24228668212891 69.22504425048828 15.00862884521484 72.99138641357422 C 18.77495574951172 76.75771331787109 23.15997314453125 79.71438598632812 28.0418701171875 81.77925872802734 C 33.09462738037109 83.9163818359375 38.46371459960938 85 44 85 C 49.53628540039062 85 54.9053840637207 83.9163818359375 59.95814514160156 81.77925872802734 C 64.84002685546875 79.71438598632812 69.22504425048828 76.75771331787109 72.99138641357422 72.99138641357422 C 76.75771331787109 69.22504425048828 79.71438598632812 64.84002685546875 81.77925872802734 59.95814514160156 C 83.9163818359375 54.9053840637207 85 49.53628540039062 85 44 C 85 38.46371459960938 83.9163818359375 33.09462738037109 81.77925872802734 28.0418701171875 C 79.71438598632812 23.15997314453125 76.75771331787109 18.77495574951172 72.99138641357422 15.00862884521484 C 69.22504425048828 11.24228668212891 64.84002685546875 8.285614013671875 59.9581298828125 6.220756530761719 C 54.9053840637207 4.083610534667969 49.53628540039062 3 44 3 M 44 0 C 68.30054473876953 0 88 19.69947052001953 88 44 C 88 68.30054473876953 68.30054473876953 88 44 88 C 19.69947052001953 88 0 68.30054473876953 0 44 C 0 19.69947052001953 19.69947052001953 0 44 0 Z" stroke="none" fill="#aa52f9"/>
                            </g>
                          </g>
                        </g>
                      </g>
                    </g>
                  </g>
                </g>
              </g>
            </g>
          </g>
        </g>
      </g>
    </g>
    <g id="ingeniero-de-software_3_" data-name="ingeniero-de-software (3)" transform="translate(196 746.13)">
      <g id="Grupo_1230753" data-name="Grupo 1230753" transform="translate(0 13.87)">
        <g id="Grupo_1230719" data-name="Grupo 1230719" transform="translate(10.282 0.923)">
          <path id="Trazado_1219834" data-name="Trazado 1219834" d="M103.117,27.618C98.985,28.7,97.1,31.94,97.86,36.629l.749,4.6h27.448l.668-4.6c2.013-13.918-19.738-18.457-23.607-9.011Z" transform="translate(-97.695 -22.639)" fill="#554e56" fill-rule="evenodd"/>
        </g>
        <g id="Grupo_1230720" data-name="Grupo 1230720" transform="translate(6.875 19.515)">
          <path id="Trazado_1219835" data-name="Trazado 1219835" d="M68.986,199.286c-5.5,0-4.565,7.767,1.23,7.332a7.382,7.382,0,0,0-.569-7.332Z" transform="translate(-65.325 -199.286)" fill="#f6a96c" fill-rule="evenodd"/>
        </g>
        <g id="Grupo_1230721" data-name="Grupo 1230721" transform="translate(36.785 19.515)">
          <path id="Trazado_1219836" data-name="Trazado 1219836" d="M351.358,199.286c-2.122,2.376-2.583,4.872-.569,7.332,5.795.435,6.733-7.332,1.23-7.332Z" transform="translate(-349.499 -199.286)" fill="#f6a96c" fill-rule="evenodd"/>
        </g>
        <g id="Grupo_1230722" data-name="Grupo 1230722" transform="translate(19.138 0.922)">
          <path id="Trazado_1219837" data-name="Trazado 1219837" d="M181.836,23.923c7.295-.529,16.438,4.322,15.634,13.256-.021.228-.049.463-.081.7l-.485,3.351h4.438l.668-4.6c1.662-11.493-12.875-16.589-20.174-12.7Z" transform="translate(-181.836 -22.634)" fill="#433f43" fill-rule="evenodd"/>
        </g>
        <g id="Grupo_1230723" data-name="Grupo 1230723" transform="translate(11.197 15.288)">
          <path id="Trazado_1219838" data-name="Trazado 1219838" d="M120.064,159.125l-7.608.014c-3.338,0-4.048.421-6.076,4.213v4.153a9.934,9.934,0,0,0,.569,3.179,15.422,15.422,0,0,0,2.189,4.108l10.756,2.885,11.174-2.885a15.423,15.423,0,0,0,2.189-4.108,9.933,9.933,0,0,0,.569-3.179v-4.153c-2.028-3.792-2.822-4.209-6.156-4.213Z" transform="translate(-106.381 -159.125)" fill="#fed2a4" fill-rule="evenodd"/>
        </g>
        <g id="Grupo_1230724" data-name="Grupo 1230724" transform="translate(29.782 15.299)">
          <path id="Trazado_1219839" data-name="Trazado 1219839" d="M282.965,159.225c6.627.018,7.256,6.505,5.542,11.545-.348,1.02-.843,2.744-1.462,4.111-.095.21-.193.41-.292.6l2.115-.547.2-.053a15.423,15.423,0,0,0,2.189-4.108,9.933,9.933,0,0,0,.569-3.179v-4.153c-2.028-3.792-2.822-4.209-6.156-4.213Z" transform="translate(-282.965 -159.225)" fill="#ffbd86" fill-rule="evenodd"/>
        </g>
        <g id="Grupo_1230725" data-name="Grupo 1230725" transform="translate(9.36 0)">
          <path id="Trazado_1219840" data-name="Trazado 1219840" d="M118.214,34.307a.922.922,0,0,1-.813-.487c-1.935-3.619-2.467-3.723-5.344-3.726l-7.609-.014-7.6.014c-2.9,0-3.348.141-5.265,3.726a.922.922,0,0,1-1.723-.287l-.749-4.6h0c-.815-5.014,1.185-8.607,5.5-9.927a8.834,8.834,0,0,1,5.837-4.6,16.41,16.41,0,0,1,8.677.109,16.02,16.02,0,0,1,8.039,4.912,11.73,11.73,0,0,1,2.633,9.492l-.668,4.6a.922.922,0,0,1-.753.775A.911.911,0,0,1,118.214,34.307ZM90.927,28.635l.339,2.084c1.417-2.068,2.652-2.466,5.575-2.469l7.607-.014,7.611.014c2.915,0,4.2.419,5.616,2.428l.294-2.028c1.008-6.97-4.4-11.015-9.333-12.361-4.89-1.333-10.757-.446-12.509,3.832a.922.922,0,0,1-.619.542c-4.659,1.221-5.063,5.009-4.581,7.972Z" transform="translate(-88.929 -13.87)"/>
        </g>
        <g id="Grupo_1230726" data-name="Grupo 1230726" transform="translate(21.758 21.04)">
          <path id="Trazado_1219841" data-name="Trazado 1219841" d="M207.653,216.167a.922.922,0,0,1-.4-1.752,5.754,5.754,0,0,1,5.28,0,.922.922,0,0,1-.8,1.661,3.915,3.915,0,0,0-3.681,0A.918.918,0,0,1,207.653,216.167Z" transform="translate(-206.731 -213.773)"/>
        </g>
        <g id="Grupo_1230727" data-name="Grupo 1230727" transform="translate(37.153 18.593)">
          <path id="Trazado_1219842" data-name="Trazado 1219842" d="M354.382,199.721q-.261,0-.527-.02a.922.922,0,0,1,.138-1.838,3.471,3.471,0,0,0,3.406-1.48,2.8,2.8,0,0,0,.211-2.81,2.583,2.583,0,0,0-2.456-1.2h-.661a.922.922,0,0,1,0-1.843h.661a4.369,4.369,0,0,1,4.075,2.163,4.665,4.665,0,0,1-.282,4.692A5.247,5.247,0,0,1,354.382,199.721Z" transform="translate(-353.002 -190.528)"/>
        </g>
        <g id="Grupo_1230728" data-name="Grupo 1230728" transform="translate(5.958 18.593)">
          <path id="Trazado_1219843" data-name="Trazado 1219843" d="M61.956,199.721a5.245,5.245,0,0,1-4.563-2.337,4.666,4.666,0,0,1-.281-4.693,4.367,4.367,0,0,1,4.073-2.163h.661a.922.922,0,0,1,0,1.843h-.661a2.581,2.581,0,0,0-2.454,1.2,2.8,2.8,0,0,0,.211,2.811,3.47,3.47,0,0,0,3.4,1.48.922.922,0,1,1,.138,1.838Q62.217,199.721,61.956,199.721Z" transform="translate(-56.607 -190.528)"/>
        </g>
        <g id="Grupo_1230729" data-name="Grupo 1230729" transform="translate(10.275 18.593)">
          <path id="Trazado_1219844" data-name="Trazado 1219844" d="M123.234,203.812a.922.922,0,0,1-.742-1.467,12.048,12.048,0,0,0,2.58-6.741v-4.153a.922.922,0,1,1,1.843,0V195.6a13.7,13.7,0,0,1-2.937,7.832A.92.92,0,0,1,123.234,203.812Zm-21.929,0a.92.92,0,0,1-.744-.376,13.705,13.705,0,0,1-2.937-7.832v-4.153a.922.922,0,1,1,1.843,0V195.6a12.05,12.05,0,0,0,2.58,6.741.922.922,0,0,1-.742,1.467Z" transform="translate(-97.624 -190.529)"/>
        </g>
        <g id="Grupo_1230730" data-name="Grupo 1230730" transform="translate(27.161 19.515)">
          <path id="Trazado_1219845" data-name="Trazado 1219845" d="M260.043,199.286a1.988,1.988,0,0,0-1.985,1.98v2.156a1.987,1.987,0,0,0,1.985,1.98h1.827a1.987,1.987,0,0,0,1.985-1.98v-2.156a1.988,1.988,0,0,0-1.985-1.98Z" transform="translate(-258.058 -199.286)" fill="#99e6fc" fill-rule="evenodd"/>
        </g>
        <g id="Grupo_1230731" data-name="Grupo 1230731" transform="translate(16.882 19.515)">
          <path id="Trazado_1219846" data-name="Trazado 1219846" d="M162.386,199.286a1.988,1.988,0,0,0-1.985,1.98v2.156a1.987,1.987,0,0,0,1.985,1.98h1.827a1.987,1.987,0,0,0,1.985-1.98v-2.156a1.988,1.988,0,0,0-1.985-1.98Z" transform="translate(-160.401 -199.286)" fill="#99e6fc" fill-rule="evenodd"/>
        </g>
        <g id="Grupo_1230732" data-name="Grupo 1230732" transform="translate(0.922 42.588)">
          <path id="Trazado_1219847" data-name="Trazado 1219847" d="M14.4,419.423c-4.719,1.658-5.64,5.352-5.64,9.2v5.646a.735.735,0,0,0,.734.729h7.661l3.658-7.206-3.8-9.285Z" transform="translate(-8.757 -418.505)" fill="#99e6fc" fill-rule="evenodd"/>
        </g>
        <g id="Grupo_1230733" data-name="Grupo 1230733" transform="translate(36.322 42.588)">
          <path id="Trazado_1219848" data-name="Trazado 1219848" d="M349.439,418.505l-4.34,9.53L349.305,435h7.657a.735.735,0,0,0,.734-.729V428.62c0-3.845-.921-7.539-5.64-9.2Z" transform="translate(-345.099 -418.505)" fill="#99e6fc" fill-rule="evenodd"/>
        </g>
        <g id="Grupo_1230734" data-name="Grupo 1230734" transform="translate(9.18 30.955)">
          <path id="Trazado_1219849" data-name="Trazado 1219849" d="M113.923,307.979H89.079a1.869,1.869,0,0,0-1.862,1.861v21.212H118.7V309.84a1.868,1.868,0,0,0-1.862-1.861Z" transform="translate(-87.217 -307.979)" fill="#7a6d79" fill-rule="evenodd"/>
        </g>
        <g id="Grupo_1230735" data-name="Grupo 1230735" transform="translate(6.548 54.028)">
          <path id="Trazado_1219850" data-name="Trazado 1219850" d="M96.324,527.2H63.11a.9.9,0,0,0-.9.9v1.391a2.773,2.773,0,0,0,2.769,2.762H96.19a2.773,2.773,0,0,0,2.769-2.762V528.1a.9.9,0,0,0-.9-.9Z" transform="translate(-62.21 -527.198)" fill="#554e56" fill-rule="evenodd"/>
        </g>
        <g id="Grupo_1230736" data-name="Grupo 1230736" transform="translate(35.25 30.955)">
          <path id="Trazado_1219851" data-name="Trazado 1219851" d="M336.777,319.614v11.44h3.549V309.842a1.868,1.868,0,0,0-1.862-1.861h-3.549a1.869,1.869,0,0,1,1.862,1.861v9.772Z" transform="translate(-334.915 -307.981)" fill="#685e68" fill-rule="evenodd"/>
        </g>
        <g id="Grupo_1230737" data-name="Grupo 1230737" transform="translate(36.979 54.028)">
          <path id="Trazado_1219852" data-name="Trazado 1219852" d="M355.025,527.2h-1.813a.9.9,0,0,1,.9.9v1.391a2.773,2.773,0,0,1-2.769,2.762h3.549a2.773,2.773,0,0,0,2.769-2.762V528.1a.9.9,0,0,0-.9-.9Z" transform="translate(-351.342 -527.198)" fill="#433f43" fill-rule="evenodd"/>
        </g>
        <g id="Grupo_1230738" data-name="Grupo 1230738" transform="translate(40.661 42.588)">
          <path id="Trazado_1219853" data-name="Trazado 1219853" d="M386.332,418.505v2.86c3.974,1.788,5.271,3.256,5.271,6.435V435h2.252a.735.735,0,0,0,.734-.729V428.62c0-3.845-.921-7.539-5.64-9.2Z" transform="translate(-386.332 -418.505)" fill="#62dbfb" fill-rule="evenodd"/>
        </g>
        <g id="Grupo_1230739" data-name="Grupo 1230739" transform="translate(17.28 34.516)">
          <path id="Trazado_1219854" data-name="Trazado 1219854" d="M169.957,343.49a6.556,6.556,0,0,0-2.671,1.542l-.938-.543a.6.6,0,0,0-.822.221l-1.265,2.187a.6.6,0,0,0,.221.817l.935.54a6.7,6.7,0,0,0,0,3.077l-.935.54a.6.6,0,0,0-.221.817l1.265,2.187a.605.605,0,0,0,.822.217l.938-.54a6.547,6.547,0,0,0,2.671,1.539v1.079a.6.6,0,0,0,.6.6h2.534a.6.6,0,0,0,.6-.6V356.09a6.548,6.548,0,0,0,2.671-1.539l.942.54a.6.6,0,0,0,.819-.217l1.265-2.187a.6.6,0,0,0-.221-.817l-.935-.54a6.7,6.7,0,0,0,0-3.077l.935-.54a.6.6,0,0,0,.221-.817l-1.265-2.187a.6.6,0,0,0-.819-.221l-.942.543a6.555,6.555,0,0,0-2.671-1.542v-1.079a.6.6,0,0,0-.6-.6h-2.534a.6.6,0,0,0-.6.6v1.079Zm1.866,3.466a2.835,2.835,0,1,1-2.846,2.835,2.84,2.84,0,0,1,2.846-2.835Z" transform="translate(-164.181 -341.815)" fill="#e5e1e5" fill-rule="evenodd"/>
        </g>
        <g id="Grupo_1230740" data-name="Grupo 1230740" transform="translate(21.154 38.736)">
          <path id="Trazado_1219855" data-name="Trazado 1219855" d="M204.758,389.422a3.757,3.757,0,1,1,3.765-3.757A3.767,3.767,0,0,1,204.758,389.422Zm0-5.671a1.914,1.914,0,1,0,1.921,1.914A1.921,1.921,0,0,0,204.758,383.751Z" transform="translate(-200.99 -381.908)"/>
        </g>
        <g id="Grupo_1230741" data-name="Grupo 1230741" transform="translate(16.357 33.594)">
          <path id="Trazado_1219856" data-name="Trazado 1219856" d="M165.245,350.854h-2.534a1.522,1.522,0,0,1-1.519-1.521v-.424a7.532,7.532,0,0,1-1.856-1.069l-.372.214a1.53,1.53,0,0,1-2.078-.553l-1.266-2.189a1.519,1.519,0,0,1,.562-2.078l.367-.212a7.578,7.578,0,0,1,0-2.133l-.37-.214a1.519,1.519,0,0,1-.557-2.078l1.264-2.185a1.526,1.526,0,0,1,2.078-.56l.375.217A7.541,7.541,0,0,1,161.192,335v-.424a1.52,1.52,0,0,1,1.519-1.518h2.534a1.52,1.52,0,0,1,1.519,1.518V335a7.539,7.539,0,0,1,1.855,1.072l.375-.216a1.522,1.522,0,0,1,2.079.56l1.264,2.185a1.519,1.519,0,0,1-.562,2.078l-.367.212a7.583,7.583,0,0,1,0,2.133l.37.214a1.518,1.518,0,0,1,.557,2.078l-1.264,2.185a1.525,1.525,0,0,1-2.078.553l-.372-.214a7.53,7.53,0,0,1-1.856,1.07v.424A1.521,1.521,0,0,1,165.245,350.854Zm-2.209-1.843h1.885v-.757a.922.922,0,0,1,.662-.885,5.659,5.659,0,0,0,2.3-1.322.921.921,0,0,1,1.093-.132l.666.382.94-1.626-.656-.379a.922.922,0,0,1-.437-1.009,5.776,5.776,0,0,0,0-2.656.922.922,0,0,1,.436-1.009l.656-.379-.941-1.628-.662.382a.921.921,0,0,1-1.1-.13,5.664,5.664,0,0,0-2.3-1.326.922.922,0,0,1-.662-.884V334.9h-1.885v.754a.921.921,0,0,1-.662.884,5.662,5.662,0,0,0-2.3,1.326.922.922,0,0,1-1.1.129l-.66-.383-.942,1.629.656.379a.922.922,0,0,1,.436,1.009,5.774,5.774,0,0,0,0,2.656.922.922,0,0,1-.436,1.009l-.656.379.941,1.627.664-.382a.921.921,0,0,1,1.094.131,5.658,5.658,0,0,0,2.3,1.322.922.922,0,0,1,.662.885v.757Zm6.875-2.557h0Zm.947-1.621h0Zm-13.755,0h0Zm13.639-.442h0Zm-13.526,0h0Zm13.527-4.864h0Zm-13.525,0h0Zm13.64-.442h0Zm-13.76,0h0Zm12.82-1.627h0Zm-.441-.116h0Zm-10.994,0v0Z" transform="translate(-155.415 -333.057)"/>
        </g>
        <g id="Grupo_1230742" data-name="Grupo 1230742" transform="translate(8.258 30.033)">
          <path id="Trazado_1219857" data-name="Trazado 1219857" d="M110.863,324.138H79.381a.922.922,0,0,1-.922-.922V302a2.787,2.787,0,0,1,2.784-2.783H92.516a.922.922,0,1,1,0,1.843H81.243A.953.953,0,0,0,80.3,302v20.29h29.638V302a.941.941,0,0,0-.941-.939H96.81a.922.922,0,1,1,0-1.843H109A2.787,2.787,0,0,1,111.784,302v21.212A.922.922,0,0,1,110.863,324.138Z" transform="translate(-78.459 -299.222)"/>
        </g>
        <g id="Grupo_1230743" data-name="Grupo 1230743" transform="translate(5.626 53.106)">
          <path id="Trazado_1219858" data-name="Trazado 1219858" d="M88.355,525.338a.922.922,0,0,1,0-1.843,1.846,1.846,0,0,0,1.847-1.84v-1.367H55.3v1.367a1.846,1.846,0,0,0,1.847,1.84.922.922,0,0,1,0,1.843,3.691,3.691,0,0,1-3.691-3.683v-1.391a1.822,1.822,0,0,1,1.821-1.819H90.221a1.824,1.824,0,0,1,1.825,1.819v1.391A3.691,3.691,0,0,1,88.355,525.338Z" transform="translate(-53.453 -518.444)"/>
        </g>
        <g id="Grupo_1230744" data-name="Grupo 1230744" transform="translate(15.961 18.593)">
          <path id="Trazado_1219859" data-name="Trazado 1219859" d="M156.378,198.488h-1.827a2.908,2.908,0,0,1-2.907-2.9V193.43a2.908,2.908,0,0,1,2.907-2.9h1.827a2.908,2.908,0,0,1,2.907,2.9v2.156A2.908,2.908,0,0,1,156.378,198.488Zm-1.827-6.116a1.062,1.062,0,0,0-1.064,1.059v2.156a1.062,1.062,0,0,0,1.064,1.059h1.827a1.062,1.062,0,0,0,1.064-1.059V193.43a1.062,1.062,0,0,0-1.064-1.059Z" transform="translate(-151.644 -190.528)"/>
        </g>
        <g id="Grupo_1230745" data-name="Grupo 1230745" transform="translate(26.239 18.593)">
          <path id="Trazado_1219860" data-name="Trazado 1219860" d="M254.035,198.488h-1.827a2.908,2.908,0,0,1-2.907-2.9V193.43a2.908,2.908,0,0,1,2.907-2.9h1.827a2.908,2.908,0,0,1,2.907,2.9v2.156A2.908,2.908,0,0,1,254.035,198.488Zm-1.827-6.116a1.062,1.062,0,0,0-1.064,1.059v2.156a1.062,1.062,0,0,0,1.064,1.059h1.827a1.062,1.062,0,0,0,1.064-1.059V193.43a1.063,1.063,0,0,0-1.064-1.059Z" transform="translate(-249.301 -190.528)"/>
        </g>
        <g id="Grupo_1230746" data-name="Grupo 1230746" transform="translate(0 41.666)">
          <path id="Trazado_1219861" data-name="Trazado 1219861" d="M48.185,428.08H1.656A1.655,1.655,0,0,1,0,426.43v-5.646c0-3.378.649-8.1,6.256-10.066l2.618-.918a.922.922,0,0,1,.61,1.739l-2.618.918c-3.521,1.237-5.023,3.727-5.023,8.327v5.454H48v-5.454c0-4.6-1.5-7.09-5.024-8.327l-2.618-.918a.922.922,0,0,1,.61-1.739l2.618.918c5.608,1.97,6.257,6.689,6.257,10.067v5.646A1.655,1.655,0,0,1,48.185,428.08Z" transform="translate(0 -409.746)"/>
        </g>
        <g id="Grupo_1230747" data-name="Grupo 1230747" transform="translate(36.033 27.264)">
          <path id="Trazado_1219862" data-name="Trazado 1219862" d="M366.515,278.307a11.628,11.628,0,0,1-16.653,15.625l-3.236-.151-4.266-.2L344,289.645l1.244-2.986a11.64,11.64,0,0,1,21.274-8.352Z" transform="translate(-342.36 -272.913)" fill="#e5e1e5" fill-rule="evenodd"/>
        </g>
        <g id="Grupo_1230748" data-name="Grupo 1230748" transform="translate(48.733 27.264)">
          <path id="Trazado_1219863" data-name="Trazado 1219863" d="M471.542,278.346a11.617,11.617,0,0,1-8.205,17.714,11.614,11.614,0,1,0-.316-23.034,11.621,11.621,0,0,1,8.521,5.32Z" transform="translate(-463.021 -272.913)" fill="#d7d0d6" fill-rule="evenodd"/>
        </g>
        <g id="Grupo_1230749" data-name="Grupo 1230749" transform="translate(35.112 26.348)">
          <path id="Trazado_1219864" data-name="Trazado 1219864" d="M348.844,289.279a12.554,12.554,0,0,1-7.128-2.226l-7.234-.338a.922.922,0,0,1-.808-1.275l2.778-6.674a12.564,12.564,0,1,1,22.418,5.527.922.922,0,0,1-1.469-1.113,10.705,10.705,0,1,0-19.089-4.478.921.921,0,0,1-.055.524l-2.376,5.709,6.19.289a.922.922,0,0,1,.5.173,10.7,10.7,0,0,0,12.023.365.922.922,0,1,1,.985,1.558A12.582,12.582,0,0,1,348.844,289.279Z" transform="translate(-333.603 -264.21)"/>
        </g>
        <g id="Grupo_1230750" data-name="Grupo 1230750" transform="translate(42.674 35.287)">
          <path id="Trazado_1219865" data-name="Trazado 1219865" d="M408.175,357.058a.921.921,0,0,1-.8-.459l-1.8-3.1a.921.921,0,0,1,.008-.94l1.8-2.976a.922.922,0,0,1,1.577.954l-1.516,2.508,1.525,2.626a.922.922,0,0,1-.8,1.385Z" transform="translate(-405.453 -349.14)"/>
        </g>
        <g id="Grupo_1230751" data-name="Grupo 1230751" transform="translate(48.032 34.965)">
          <path id="Trazado_1219866" data-name="Trazado 1219866" d="M457.287,354.636a.922.922,0,0,1-.856-1.264l2.681-6.715a.922.922,0,0,1,1.712.684l-2.681,6.715A.922.922,0,0,1,457.287,354.636Z" transform="translate(-456.365 -346.077)"/>
        </g>
        <g id="Grupo_1230752" data-name="Grupo 1230752" transform="translate(54.554 35.287)">
          <path id="Trazado_1219867" data-name="Trazado 1219867" d="M519.254,357.057a.922.922,0,0,1-.8-1.385l1.525-2.626-1.517-2.508a.922.922,0,0,1,1.577-.954l1.8,2.976a.921.921,0,0,1,.008.94l-1.8,3.1A.921.921,0,0,1,519.254,357.057Z" transform="translate(-518.333 -349.139)"/>
        </g>
      </g>
    </g>
  </g>
</svg>
